<svg width="43" height="40" viewBox="0 0 43 40" fill="none" xmlns="http://www.w3.org/2000/svg">
<path d="M8.8981 0.308158C7.31671 0.750929 6.6239 1.03557 5.62989 1.6681C3.17496 3.23361 1.20198 6.01674 0.358572 9.11613C-0.0932547 10.7449 -0.123377 14.0657 0.298329 15.647C0.674851 17.0228 1.59357 19.0469 2.30143 20.0273C2.8135 20.7547 5.56964 23.7908 12.588 31.3812C13.9586 32.8518 16.0972 35.1764 17.3322 36.5205C20.7209 40.1892 20.6155 40.1101 21.5342 39.9361C21.8957 39.8571 22.4077 39.4143 23.5222 38.2125C24.3355 37.327 26.9862 34.4648 29.3809 31.8556C31.7756 29.2464 34.6673 26.1154 35.7969 24.8978C40.0742 20.2803 40.7067 19.4422 41.5049 17.4339C42.1676 15.7735 42.4387 14.2713 42.4237 12.3262C42.4086 6.90228 39.1404 2.14249 34.3058 0.51373C32.5889 -0.07136 30.1189 -0.166239 28.402 0.292345C26.9411 0.671863 25.194 1.49415 24.2753 2.23737C23.9439 2.5062 23.1005 3.29686 22.4228 4.00846L21.1727 5.27352L19.8624 3.89776C17.7991 1.76298 16.4135 0.893248 14.0339 0.308158C12.4525 -0.102986 10.3289 -0.102986 8.8981 0.308158ZM13.567 3.70801C15.2538 4.1824 16.1273 4.81493 18.4015 7.21855C20.4649 9.4324 20.5251 9.47984 21.1577 9.47984C21.7902 9.47984 21.8655 9.41659 24.0945 7.13948C27.0465 4.11915 28.2664 3.47081 30.887 3.47081C33.6883 3.47081 36.068 4.78331 37.6343 7.21855C40.029 10.8872 39.6223 15.6944 36.6553 18.9678C35.827 19.8691 31.2033 24.9136 25.5404 31.0649C24.5012 32.1877 23.1005 33.7057 22.4378 34.4331L21.248 35.7456L19.1244 33.4843C17.9648 32.2351 15.9466 30.0529 14.6212 28.6139C13.2959 27.1749 11.3078 25.0084 10.1783 23.7908C4.8166 17.9716 4.80154 17.9557 4.24428 16.7856C2.52734 13.2118 3.03941 9.03707 5.53952 6.22231C6.59378 5.03632 7.91914 4.15078 9.19932 3.77126C10.3439 3.42337 12.3922 3.39174 13.567 3.70801Z" fill="black"/>
</svg>
