<svg aria-hidden="true" style="position: absolute; width: 0; height: 0; overflow: hidden;" version="1.1" xmlns="http://www.w3.org/2000/svg" xmlns:xlink="http://www.w3.org/1999/xlink">
<defs>
<symbol id="icon-fil" viewBox="0 0 30 32">
<path d="M0.018 0.675c-0.17 0.511 0.817 2.349 4.153 7.557l4.357 6.877 0.204 11.098 5.787 2.86c3.166 1.6 5.821 2.894 5.889 2.894 0.102 0 0.409-0.238 0.681-0.545 0.477-0.443 0.545-1.702 0.545-8.374v-7.864l4.255-6.809c2.689-4.255 4.255-7.081 4.187-7.523-0.102-0.715-0.17-0.715-14.979-0.817-14.809-0.068-14.877-0.068-15.081 0.647zM26.401 2.513c0 0.068-1.668 2.86-3.745 6.162l-3.745 6.026v6.774c0 3.711-0.068 6.74-0.17 6.74s-1.872-0.851-3.915-1.872l-3.745-1.872v-10.008l-3.54-5.617c-1.94-3.098-3.608-5.855-3.745-6.094-0.204-0.306 2.145-0.409 11.166-0.409 6.298 0 11.438 0.068 11.438 0.17z"></path>
</symbol>
</defs>
</svg>
