<svg aria-hidden="true" style="position: absolute; width: 0; height: 0; overflow: hidden;" version="1.1" xmlns="http://www.w3.org/2000/svg" xmlns:xlink="http://www.w3.org/1999/xlink">
<defs>
<symbol id="icon-map" viewBox="0 0 29 32">
<path d="M6.985 1.973c1.609-0.941 3.885-1.705 5.612-1.882 6.279-0.686 12.145 2.509 14.794 8.095 2.198 4.586 1.805 9.78-1.040 14.386-1.197 1.94-4.552 5.292-6.73 6.723-2.217 1.47-4.631 2.705-5.258 2.705-0.648 0-3.846-1.705-5.808-3.116-5.71-4.077-8.555-8.918-8.555-14.523 0-4.057 1.256-7.154 4.12-10.015 0.922-0.921 2.217-1.999 2.865-2.372zM24.193 7.638c-1.511-2.215-4.12-4.096-6.632-4.763-1.511-0.412-3.944-0.49-5.494-0.196-6.436 1.254-10.693 7.526-9.438 13.935 0.922 4.665 4.552 8.918 10.281 12.093l1.432 0.784 1.216-0.647c4.218-2.176 7.907-5.743 9.536-9.192 1.844-3.9 1.511-8.506-0.903-12.014zM8 14.405c0.020-3.091 1.899-5.526 4.838-6.222 3.001-0.716 5.982 0.716 7.349 3.52 0.817 1.658 0.817 3.746 0 5.403-1.572 3.213-5.267 4.564-8.513 3.111-2.327-1.044-3.675-3.172-3.675-5.813zM16.921 17.209c2.123-1.883 1.592-5.076-1.062-6.304-1.49-0.696-3.226-0.307-4.348 0.962-1.552 1.781-1.286 4.237 0.592 5.588 1.511 1.105 3.389 1.003 4.818-0.246z"></path>
</symbol>
<symbol id="icon-clock" viewBox="0 0 32 32">
<path d="M0 16.064c0-7.465 4.734-13.633 11.921-15.521 3.889-1.014 7.496-0.62 11.357 1.268 8.821 4.31 11.498 15.831 5.495 23.774-4.171 5.549-11.611 7.831-17.98 5.521-6.651-2.394-10.793-8.169-10.793-15.042zM29.393 14.205c-0.789-5.493-5.185-10.281-10.455-11.38-6.313-1.324-12.428 1.69-15.218 7.493-1.043 2.169-1.043 2.225-1.043 5.746 0 2.059 0 2.914 0.22 3.708 0.156 0.564 0.423 1.098 0.879 2.010 2.79 5.69 8.849 8.732 14.88 7.465 6.961-1.465 11.723-8.141 10.737-15.042zM14.654 11.952c0-3.746 0.085-4.535 0.479-4.986 0.564-0.62 1.043-0.648 1.606-0.056 0.366 0.366 0.451 1.183 0.451 4.422v4l2.367 2.366c1.324 1.296 2.452 2.592 2.508 2.873 0.169 0.648-0.535 1.662-1.184 1.662-0.254 0-1.775-1.324-3.354-2.93l-2.874-2.901v-4.451z"></path>
</symbol>
<symbol id="icon-fem" viewBox="0 0 19 32">
<path d="M7.434 0.181c-2.683 0.611-5.194 2.597-6.397 5.075-1.101 2.24-1.307 4.158-0.705 6.467 0.482 1.85 1.083 2.868 2.58 4.362 1.359 1.341 2.167 1.816 4.213 2.444l1.204 0.373 0.052 2.818 0.034 2.834h-2.029c-1.823 0-2.098 0.034-2.511 0.356-0.516 0.39-0.602 1.222-0.206 1.782 0.224 0.288 0.533 0.339 2.459 0.407l2.201 0.085 0.086 2.156c0.069 1.901 0.12 2.189 0.43 2.41 0.499 0.373 1.169 0.322 1.599-0.119 0.344-0.356 0.378-0.577 0.378-2.461v-2.071h2.115c1.995 0 2.15-0.017 2.494-0.39 0.482-0.509 0.499-1.324 0.017-1.748-0.31-0.272-0.688-0.339-2.494-0.373l-2.132-0.068v-5.72l0.929-0.187c3.646-0.747 6.759-4.056 7.343-7.79 0.688-4.464-2.046-8.877-6.432-10.37-1.376-0.475-3.784-0.594-5.228-0.272zM12.577 3.117c5.417 2.512 5.452 9.98 0.052 12.543-3.56 1.697-7.636 0.255-9.407-3.293-0.464-0.917-0.568-1.341-0.619-2.58-0.172-3.378 1.685-5.974 5.039-7.078 0.43-0.136 1.29-0.204 2.236-0.17 1.324 0.034 1.72 0.119 2.7 0.577z"></path>
</symbol>
</defs>
</svg>
